PathFileType  4	(X/Y/Z) C:\Users\antoi\Documents\MyRepositories\mobilecap\ResultsAnalysis
DataRate	CameraRate	NumFrames	NumMarkers	Units	OrigDataRate	OrigDataStartFrame	OrigNumFrames
100.0	100.0	6	51	mm	100.0	47	184
Frame#	Time	r_knee			r_shank_antsup			r_ankle			r_calc			r_5meta			r_toe			L_knee			L_shank_antsup			L_ankle			L_calc			L_5meta			L_toe			r_sh2			r_sh3			r_sh4			L_sh2			L_sh3			r_thigh1			r_thigh2			r_thigh3			r_thigh4			r_thigh5			L_thigh1			L_thigh2			L_thigh3			L_thigh4			r.ASIS			r.PSIS			L.ASIS			L.PSIS			C7			R_Shoulder			L_Shoulder			R_Sternum			L_Sternum			R_humerus			R_elbow_med			R_elbow_lat			R_forearm			R_wrist_radius			R_wrist_ulna			L_humerus			L_elbow_med			L_elbow_lat			L_forearm			L_wrist_radius			L_wrist_ulna			R_HJC			L_HJC			R_HJC_reg			L_HJC_reg			
		X1	Y1	Z1	X2	Y2	Z2	X3	Y3	Z3	X4	Y4	Z4	X5	Y5	Z5	X6	Y6	Z6	X7	Y7	Z7	X8	Y8	Z8	X9	Y9	Z9	X10	Y10	Z10	X11	Y11	Z11	X12	Y12	Z12	X13	Y13	Z13	X14	Y14	Z14	X15	Y15	Z15	X16	Y16	Z16	X17	Y17	Z17	X18	Y18	Z18	X19	Y19	Z19	X20	Y20	Z20	X21	Y21	Z21	X22	Y22	Z22	X23	Y23	Z23	X24	Y24	Z24	X25	Y25	Z25	X26	Y26	Z26	X27	Y27	Z27	X28	Y28	Z28	X29	Y29	Z29	X30	Y30	Z30	X31	Y31	Z31	X32	Y32	Z32	X33	Y33	Z33	X34	Y34	Z34	X35	Y35	Z35	X36	Y36	Z36	X37	Y37	Z37	X38	Y38	Z38	X39	Y39	Z39	X40	Y40	Z40	X41	Y41	Z41	X42	Y42	Z42	X43	Y43	Z43	X44	Y44	Z44	X45	Y45	Z45	X46	Y46	Z46	X47	Y47	Z47	X48	Y48	Z48	X49	Y49	Z49	X50	Y50	Z50	X51	Y51	Z51	

47	0.46000000	214.05089	602.28260	-94.22016	229.13650	450.40760	-108.55128	138.31782	95.06418	-136.76463	83.73465	75.49279	-200.73751	276.44906	39.84459	-110.13165	316.86445	65.41166	-160.07366	376.67588	651.60305	-411.63717	400.15250	450.33462	-400.37536	263.41975	166.15504	-378.94573	212.98292	146.18944	-306.30691	383.39046	58.78544	-426.75195	436.39478	90.57056	-380.22473	219.17445	338.77094	-122.93563	165.25908	448.28737	-64.55091	152.14313	335.89090	-72.40296	323.64466	472.89665	-439.22529	293.22350	360.79604	-419.47854	262.79685	890.89650	-51.80989	275.91488	780.31489	-60.80198	214.34780	751.77221	-50.24064	148.84289	881.80353	-66.26367	162.37060	763.57875	-68.86658	331.60760	944.62029	-413.66045	383.48854	820.58840	-416.21354	228.72542	907.53607	-420.56130	284.11156	780.46701	-429.93919	305.05652	1174.37240	-98.76255	104.93392	1205.74334	-159.35766	255.62833	1181.91578	-372.99774	88.59794	1207.76917	-250.79943	179.40315	1697.06406	-173.77011	253.22423	1622.57428	-14.95628	225.06171	1681.00068	-357.57354	312.51405	1593.35254	-168.26331	311.96815	1602.31061	-224.92673	206.52479	1356.95861	48.32677	96.69126	1256.46857	17.16364	117.17354	1276.03102	90.00991	236.55767	1093.24084	90.76214	284.01858	1010.90181	81.31135	254.57420	1001.29274	106.72557	182.68362	1398.17304	-451.38737	81.47494	1334.55894	-411.28252	105.87696	1332.66279	-485.02673	188.76598	1143.89060	-517.67350	218.44140	1069.14544	-513.31187	193.03020	1071.74162	-537.10407	222.19820	1079.18017	-129.83496	183.59973	1087.72262	-323.31487	229.44210	1091.17644	-127.82731	197.09648	1095.18729	-308.89429	
48	0.47000000	216.43983	602.04897	-93.96316	230.76837	450.09602	-108.52012	138.39301	95.27349	-136.92048	83.71895	75.60128	-200.97295	276.45108	39.93979	-110.13513	316.91435	65.47212	-160.02936	388.52562	651.57744	-410.16693	418.89842	451.25845	-399.10787	293.66507	161.27593	-379.95796	242.81605	139.39875	-307.93630	418.57523	58.98092	-426.43946	469.59920	92.95553	-379.31850	220.39678	338.52773	-123.04343	166.90318	448.19184	-64.44457	153.46387	335.87629	-72.41128	341.59387	470.92612	-438.55777	315.57559	357.73772	-419.44245	268.71823	890.19320	-51.51618	280.78162	779.33783	-60.74488	218.84336	751.51772	-49.95572	154.62527	882.21533	-65.46594	166.92249	763.88945	-68.32677	341.31227	944.32570	-412.01431	393.73713	820.56254	-414.09886	238.76905	906.95607	-419.80235	294.66755	779.92359	-428.40901	313.04076	1174.12846	-97.96905	113.21886	1205.19264	-159.43504	264.64945	1181.13273	-372.56227	97.24818	1207.08679	-250.93513	187.76970	1696.66667	-175.17181	261.11756	1622.82824	-15.84567	234.01257	1679.95310	-358.74247	320.82730	1593.00620	-168.82429	320.49513	1601.72246	-225.52662	214.44904	1357.45500	48.26661	104.92351	1256.63319	17.24000	125.14992	1276.54439	90.08914	245.21285	1094.23111	91.72530	293.01216	1012.03863	82.69603	263.56915	1002.39902	108.03699	192.85180	1396.64979	-451.62288	91.55893	1332.88342	-411.68573	116.14552	1330.90675	-485.44369	199.74420	1142.25295	-517.23302	229.57560	1067.56782	-512.55534	204.29019	1070.01465	-536.50646	230.42930	1078.80058	-129.25584	192.55063	1086.97316	-322.89409	237.63072	1090.69212	-127.26245	205.98803	1094.44460	-308.56213	
49	0.48000000	218.92760	601.76759	-93.73259	232.47814	449.75181	-108.53455	138.46423	95.49580	-137.09135	83.69772	75.69552	-201.22244	276.46490	40.06832	-110.14007	316.97113	65.51963	-160.02650	400.18624	651.36507	-408.73854	437.21362	452.18651	-397.68381	323.40470	157.01735	-380.69473	272.19077	133.46565	-309.28894	452.80912	59.65057	-425.58045	501.90894	95.74512	-377.97995	221.64588	338.23571	-123.21385	168.62193	448.08546	-64.35669	154.83787	335.85204	-72.43180	359.35932	468.99082	-437.89846	337.66708	354.90057	-419.32595	274.74050	889.40544	-51.23259	285.75629	778.28918	-60.77480	223.47940	751.16411	-49.73818	160.51713	882.53837	-64.60737	171.60806	764.10617	-67.77937	350.98802	943.85089	-410.34563	403.94009	820.36120	-411.95918	248.81427	906.28759	-419.14036	305.15145	779.31597	-427.00742	321.10018	1173.78150	-97.13230	121.54612	1204.55835	-159.52493	273.70408	1180.21476	-372.03282	105.95253	1206.31387	-251.08281	196.16405	1696.16371	-176.69652	269.01359	1623.01238	-16.83284	243.02272	1678.75502	-360.02081	329.18128	1592.56201	-169.47624	329.02976	1601.03178	-226.22391	222.30864	1357.90151	48.15156	113.05190	1256.78786	17.29008	133.02993	1277.04905	90.13030	253.67206	1095.14321	92.65338	301.73382	1013.06606	84.06956	272.29423	1003.42061	109.33115	203.05475	1394.98332	-451.93482	101.72221	1331.04836	-412.21713	126.41861	1329.00164	-485.92519	210.74183	1140.44962	-516.79482	240.70519	1065.78717	-511.83168	215.57284	1068.10223	-535.92810	238.68451	1078.32944	-128.62694	201.54719	1086.10376	-322.42477	245.85173	1090.11478	-126.64025	214.93942	1093.59453	-308.15001	
50	0.49000000	221.52683	601.42841	-93.50479	234.27916	449.37609	-108.55441	138.52918	95.70926	-137.26771	83.68761	75.76383	-201.46462	276.49714	40.21769	-110.13968	317.03043	65.54139	-160.05821	411.67258	650.96820	-407.35852	455.08426	453.11012	-396.12238	352.52305	153.37368	-381.12145	301.08675	128.33520	-310.33114	485.94570	60.77297	-424.27536	533.21260	98.87454	-376.28710	222.92562	337.88913	-123.41199	170.42563	447.96053	-64.25893	156.24473	335.81404	-72.44403	376.93358	467.10490	-437.23208	359.45490	352.27429	-419.10647	280.85429	888.53564	-50.94300	290.83261	777.18425	-60.84521	228.24738	750.71953	-49.55134	166.50957	882.77112	-63.72008	176.43054	764.22268	-67.22056	360.66588	943.21682	-408.68066	414.11504	820.00407	-409.81870	258.85761	905.52432	-418.56890	315.60619	778.65245	-425.77032	329.21956	1173.31130	-96.25886	129.93547	1203.84840	-159.63295	282.83343	1179.16122	-371.40657	114.71866	1205.46017	-251.24874	204.59048	1695.55471	-178.34086	276.90928	1623.12777	-17.91690	252.10646	1677.39424	-361.40423	337.58663	1592.02412	-170.21581	337.59860	1600.24359	-227.01126	230.11322	1358.29724	47.97952	121.07335	1256.93087	17.31172	140.81734	1277.54122	90.13052	261.93275	1095.97045	93.54614	310.19507	1013.98446	85.46115	280.75702	1004.35365	110.60863	213.28045	1393.16010	-452.32525	111.96895	1329.03516	-412.85704	136.70197	1326.93070	-486.45794	221.75586	1138.47650	-516.37431	251.78758	1063.77428	-511.16835	226.87455	1066.00010	-535.37597	246.95475	1077.75722	-127.95554	210.60120	1085.11993	-321.91724	254.11645	1089.44985	-125.96119	223.94092	1092.64587	-307.64190	
51	0.50000000	224.24975	601.02465	-93.25908	236.19329	448.97242	-108.54832	138.58687	95.89725	-137.44252	83.69615	75.80372	-201.68118	276.55236	40.36990	-110.13171	317.08954	65.52964	-160.11279	422.98355	650.38379	-406.03005	472.49272	454.01463	-394.45713	380.93137	150.32595	-381.22224	329.47910	123.93055	-311.03318	517.89553	62.33441	-422.63327	563.44226	102.29050	-374.31873	224.25348	337.49264	-123.60478	172.33664	447.80856	-64.12842	157.68072	335.75486	-72.42997	394.28975	465.27816	-436.53543	380.88423	349.84092	-418.75612	287.03973	887.58899	-50.62865	295.99098	776.03820	-60.89715	233.12773	750.19621	-49.35300	172.58740	882.91528	-62.84068	181.37755	764.24222	-66.64626	370.36735	942.44524	-407.04732	424.25749	819.50164	-407.71013	268.88281	904.65529	-418.06725	326.03882	777.92325	-424.68615	337.38564	1172.70325	-95.36156	138.39997	1203.07024	-159.76373	292.06771	1177.97040	-370.70281	123.55231	1204.53774	-251.43874	213.05520	1694.84260	-180.10204	284.80946	1623.17583	-19.09650	261.27234	1675.86473	-362.88846	346.05539	1591.39941	-171.03792	346.23012	1599.36244	-227.87957	237.86956	1358.64345	47.74965	128.98667	1257.06397	17.29987	148.51808	1278.01863	90.08633	269.99469	1096.71009	94.40487	318.40513	1014.79639	86.90012	288.96701	1005.19744	111.86790	223.52040	1391.16763	-452.79200	122.30104	1326.83194	-413.58038	147.01361	1324.67994	-487.02840	232.78298	1136.33093	-515.98653	262.77875	1061.50688	-510.58191	238.18923	1063.71144	-534.85056	255.23242	1077.07762	-127.25592	219.71576	1084.02727	-321.38698	262.42994	1088.69290	-125.24031	232.98394	1091.60327	-307.04968	
52	0.51000000	227.11230	600.55382	-92.98138	238.24530	448.54157	-108.49941	138.63722	96.05453	-137.61088	83.72275	75.82221	-201.86066	276.62936	40.50369	-110.11799	317.14861	65.48136	-160.17705	434.10421	649.60834	-404.74770	489.41257	454.87855	-392.73193	408.56770	147.84569	-381.00828	357.32676	120.16426	-311.37759	548.63876	64.30559	-420.75299	592.57840	105.94649	-372.15256	225.65832	337.05881	-123.76554	174.38540	447.62349	-63.95207	159.16514	335.66768	-72.37650	411.37636	463.51376	-435.78122	401.89111	347.57880	-418.24830	293.27575	886.57313	-50.27354	301.20275	774.86834	-60.87351	238.09897	749.60916	-49.10664	178.73734	882.97564	-62.00169	186.42882	764.17617	-66.05550	380.09315	941.55251	-405.46531	434.34515	818.85349	-405.66998	278.86840	903.67211	-417.60237	336.42096	777.10384	-423.71506	345.59341	1171.95106	-94.45627	146.94605	1202.23257	-159.91894	301.41860	1176.64012	-369.95699	132.45724	1203.55904	-251.65530	221.56529	1694.03389	-181.97780	292.72613	1623.15803	-20.36872	270.52396	1674.16710	-364.46998	354.59719	1590.69449	-171.93544	354.93996	1598.39402	-228.81774	245.58298	1358.94227	47.46358	136.79583	1257.19193	17.24763	156.14164	1278.48109	89.99393	277.85995	1097.36202	95.23281	326.36784	1015.50313	88.40051	296.93073	1005.95134	113.10712	233.77458	1389.00063	-453.32627	132.71366	1324.43975	-414.36050	157.37711	1322.24279	-487.62505	243.81846	1134.01054	-515.64035	273.65550	1058.98215	-510.06853	249.51007	1061.24702	-534.34549	263.51436	1076.28992	-126.54512	228.88395	1082.83097	-320.84978	270.79094	1087.83586	-124.49914	242.06035	1090.46629	-306.40476	
